<svg xmlns="http://www.w3.org/2000/svg" viewBox="0 0 256 256" fill="currentColor"><path d="M240,124a52.1,52.1,0,0,0-32-48V72a44,44,0,0,0-84-18.31A44,44,0,0,0,40,72v4a52,52,0,0,0,0,96v4a44,44,0,0,0,84,18.31A44,44,0,0,0,212,176v-4A52.06,52.06,0,0,0,240,124ZM84,212a28,28,0,0,1-28-28v-1.22A51.87,51.87,0,0,0,68,184h4a12,12,0,0,0,0-24H68A36,36,0,0,1,56.08,90,12,12,0,0,0,64,78.73V72a28,28,0,0,1,56,0v65.54A43.86,43.86,0,0,0,84,124a12,12,0,0,0,0,24,28,28,0,0,1,0,64Zm128-28a28,28,0,0,1-56,0,12,12,0,0,0,0-24,43.86,43.86,0,0,0-36-18.46V72a28,28,0,0,1,56,0v6.73A12,12,0,0,0,195.92,90,36,36,0,0,1,188,160h-4a12,12,0,0,0,0,24h4a51.87,51.87,0,0,0,12-1.22Z"/></svg>
