<svg xmlns="http://www.w3.org/2000/svg" viewBox="0 0 256 256" fill="currentColor"><path d="M128,76a52,52,0,1,0,52,52A52.06,52.06,0,0,0,128,76Zm0,80a28,28,0,1,1,28-28A28,28,0,0,1,128,156Zm104.49-35.51a11.89,11.89,0,0,0-4.69-1.49,60.08,60.08,0,0,0-19.32-33.43,12,12,0,0,0,.86-5L207,57.25a12,12,0,0,0-8.29-8.29L181.4,44.66a12,12,0,0,0-5,.86A60.08,60.08,0,0,0,143,26.52a12,12,0,0,0-1.49-4.69L130.87,6.24a12,12,0,0,0-5.74,0L114.52,21.83a11.89,11.89,0,0,0-1.49,4.69A60.08,60.08,0,0,0,79.6,55.52a12,12,0,0,0-5-.86L57.25,49A12,12,0,0,0,49,57.25L44.66,74.6a12,12,0,0,0,.86,5A60.08,60.08,0,0,0,26.52,103a12,12,0,0,0-4.69,1.49L6.24,125.13a12,12,0,0,0,0,5.74l15.59,13.35a11.89,11.89,0,0,0,4.69,1.49,60.08,60.08,0,0,0,19.32,33.43,12,12,0,0,0-.86,5L49,198.75a12,12,0,0,0,8.29,8.29l17.35,4.34a12,12,0,0,0,5-.86A60.08,60.08,0,0,0,113,229.48a12,12,0,0,0,1.49,4.69l13.35,15.59a12,12,0,0,0,5.74,0l13.35-15.59a11.89,11.89,0,0,0,1.49-4.69,60.08,60.08,0,0,0,33.43-19.32,12,12,0,0,0,5,.86l17.35-4.34a12,12,0,0,0,8.29-8.29l4.34-17.35a12,12,0,0,0-.86-5,60.08,60.08,0,0,0,19.32-33.43,11.89,11.89,0,0,0,4.69-1.49l15.59-13.35a12,12,0,0,0,0-5.74Zm-28.68,21.6a48.06,48.06,0,0,1-21.13,36.65,12,12,0,0,0-2.68,15.36l-2.55,10.2-10.2,2.55a12,12,0,0,0-15.36,2.68A48.06,48.06,0,0,1,115.91,228l-7.91-9.24A12,12,0,0,0,100,214.5a48.06,48.06,0,0,1-42.41-42.41,12,12,0,0,0-4.26-8l-9.24-7.91A48.06,48.06,0,0,1,46.09,115.91l9.24-7.91a12,12,0,0,0,4.26-8A48.06,48.06,0,0,1,100,57.59a12,12,0,0,0,8-4.26l7.91-9.24a48.06,48.06,0,0,1,36.65,21.13,12,12,0,0,0,15.36,2.68l10.2,2.55,2.55,10.2a12,12,0,0,0,2.68,15.36,48.06,48.06,0,0,1,21.13,36.65l-9.24,7.91A12,12,0,0,0,191.91,148Z"/></svg>
